<svg
  xmlns="http://www.w3.org/2000/svg"
  width="356.667"
  height="356.667"
  viewBox="0 0 94.368 94.368"
>
  <defs>
    <clipPath id="a">
      <ellipse
        cy="161.836"
        cx="103.225"
        rx="15.031"
        ry="14.966"
        fill="none"
        stroke="#000"
        stroke-width=".231"
      />
    </clipPath>
    <clipPath id="b">
      <path
        d="M43.739 147.685a6.615 4.696 0 0 0-3.616 1.916 3.44 2.646 90 0 0-.165 1.188 3.44 2.646 90 0 0 .48 1.968 6.02 2.778 0 0 1 3.026-.38 6.02 2.778 0 0 1 1.45.085 3.44 2.646 90 0 0 .336-1.673 3.44 2.646 90 0 0-1.511-3.104z"
        fill="#e6e6e6"
        stroke-width=".265"
      />
    </clipPath>
    <clipPath id="c">
      <path
        d="M50.323 147.685a6.615 4.696 0 0 1 3.616 1.916 3.44 2.646 90 0 1 .165 1.188 3.44 2.646 90 0 1-.48 1.968 6.02 2.778 0 0 0-3.026-.38 6.02 2.778 0 0 0-1.45.085 3.44 2.646 90 0 1-.336-1.673 3.44 2.646 90 0 1 1.511-3.104z"
        fill="#e6e6e6"
        stroke-width=".265"
      />
    </clipPath>
  </defs>
  <g transform="translate(-48.62 -6.752)">
    <g
      transform="matrix(3.11511 0 0 3.12872 -225.754 -452.402)"
      clip-path="url(#a)"
    >
      <path
        d="M95.773 164.398a2.048 2 0 0 0-2.048 2 2.048 2 0 0 0 .195.847l-1.752 2.13 1.786 1.72 1.558-2.715a2.048 2 0 0 0 .261.018 2.048 2 0 0 0 1.75-.964l3.144-.184c1.783 2.588 3.801 6.478 4.933 10.19l-4.04-.26.398 2.183 8.93.496.396-2.05-4.028-.261c-1.095-4.857-2.145-8.24-3.052-10.506l5.36-.313-.033-1.952-12.116.43a2.048 2 0 0 0-1.642-.81z"
        fill="#0a8"
        stroke="#000"
        stroke-width=".353"
      />
      <path
        d="M124.33 157.094a2.811 2.712 10.486 0 0-2.7 2.203 2.811 2.712 10.486 0 0-.037.35l-4.9 1.87a1.524 1.429 0 0 0-1.11-.45 1.524 1.429 0 0 0-1.523 1.428 1.524 1.429 0 0 0 .01.151l-3.454 1.622a1.714 1.715 0 0 0-.985-.312 1.714 1.715 0 0 0-1.715 1.714 1.714 1.715 0 0 0 1.715 1.715 1.714 1.715 0 0 0 1.707-1.58l3.76-1.956a1.524 1.429 0 0 0 .486.075 1.524 1.429 0 0 0 1.46-1.025l4.729-2.163a2.811 2.712 10.486 0 0 2.068 1.726 2.117 4.796 10.486 0 0 .942-2.75 2.117 4.796 10.486 0 0 .144-2.56 2.811 2.712 10.486 0 0-.038-.01 2.811 2.712 10.486 0 0-.56-.048z"
        fill="#0a8"
        stroke="#000"
        stroke-width=".353"
      />
      <path
        d="M91.308 161.437l11.642-4.366 4.96 10.848-11.112 3.44z"
        fill="#d40000"
      />
      <path d="M102.95 157.071l1.19-4.497 3.77 8.4v6.945z" fill="#ff2a2a" />
      <path
        d="M91.308 161.437l2.381-4.895 10.452-3.968-1.191 4.497z"
        fill="#ff2a2a"
      />
      <path
        d="M96.104 159.651l5.16 10.319 1.289-.397-4.96-10.484z"
        fill="maroon"
      />
      <path
        d="M103.71 154.095l-5.103 1.95.54-1.62-1.39.596-.558 1.563-4.303 1.645-.463.96 4.428-1.658-.757 2.12 1.488-.562.698-2.093 5.19-1.942zM103.48 155.054l4.398 9.757v-1.356l-4.167-9.36z"
        fill="#d40000"
      />
      <path
        d="M96.45 162.169a2.348 3.307 70.595 0 0-1.386 1.504 1.72 1.323 70.595 0 0 .12.587 1.72 1.323 70.595 0 0 .552.849 1.39 3.01 70.595 0 1 1.364-.682 1.39 3.01 70.595 0 1 .699-.201 1.72 1.323 70.595 0 0-.12-.845 1.72 1.323 70.595 0 0-1.228-1.212zM99.875 160.833a2.818 3.969 70.595 0 1 2.428.364 2.064 1.587 70.595 0 1 .33.64 2.064 1.587 70.595 0 1 .121 1.208 1.667 3.612 70.595 0 0-1.788.388 1.667 3.612 70.595 0 0-.804.338 2.064 1.587 70.595 0 1-.523-.88 2.064 1.587 70.595 0 1 .236-2.058z"
        fill="#e6e6e6"
        stroke="#000"
        stroke-width=".176"
      />
      <circle
        clip-path="url(#b)"
        transform="rotate(-19.405 317.458 -100.098) scale(.5)"
        r="1.852"
        cy="149.466"
        cx="43.662"
        fill="#333"
      />
      <circle
        clip-path="url(#c)"
        transform="rotate(-19.405 276.24 -79.051) scale(.6)"
        cx="52.394"
        cy="149.466"
        r="1.852"
        fill="#333"
      />
      <path
        d="M104.14 152.574l-10.45 3.968-2.382 4.895 5.49 9.922 11.113-3.44v-6.945z"
        fill="none"
        stroke="#000"
        stroke-width=".353"
      />
      <path
        d="M97.509 156.754l.693.952.631-.807-.17-.477.577.143.997-.531-.962-.488 1.534-.078-.61-1.106-.67-.024.34-.503.106-.833s-.402.373-.711.51c.105-.395.71-1.2.71-1.2s-.549-.303-.962-.263c-.103.01-.219.04-.334.079-.041-.186-.066-.265-.256-.353-.129.336-.432.672-.432.672l.091-1.043s-.718.04-1.26.435c-.34.47-.378.635-.378.635s-.569-.174-1.028-.161c-.246.03-.466.08-.466.08s.234.258.29.416c0 0 .015.248-.09.436-.159-.012-.328-.038-.558-.465-.145.135-.153.333-.214.524-.105.026-.208.06-.304.101a1.352 1.352 0 0 0-.576.474c.28-.039.735.343.879.49-.31.084-.805-.024-.959-.132l-.13.682c.236.004.408.093.689.232a1.905 1.905 0 0 0-.957.408c-.262.258-.394 1.303-.366 1.482.576-.324 1.845-.612 2.458-.722-.262.333-.774.854-1.132 1.064.1.178.765-.109 1.226-.295.241-.098.592-.3.592-.3s-.174.542-.107.71c.066.17 1.168.833 1.168.833z"
        fill="#500"
      />
      <path
        d="M98.833 156.9c-.007.506-.24 1.56-.347 1.7-.441.363-1.205.682-1.743.379a7.645 7.645 0 0 1-1.053-1.48c.763.101 2.182-.171 3.143-.6zM99.24 156.565c.69.019 1.863-.392 2.206-.504.343-.112.345-.411.326-.48-.019-.07-.839-.801-1.574-1.219.335.395-.137 1.943-.958 2.203zM100.554 152.92c.248-.384.14-.71.073-.804-.067-.094-.428-.202-.611-.19-.184.013-1.004.123-1.004.123.447.196.542.356.705.687.16.327.152 1.099.152 1.099s.451-.477.685-.915zM97.378 152.062c-.346-.589-.83-.766-1.314-.644-.429.108-.806.545-.748 1.37.185-.732.49-.943.874-1.059.306-.092.74-.097 1.188.333zM94.054 153.41c-.536.202-.914.378-.983.696-.07.318.498.538.808.65-.462-.52-.382-.877.175-1.346zM92.975 155.59c-.204.178-.556 1.58-.556 1.58-.038.206.205.374.614.431.41.058 1.413-.14 2.322-.572-1.107.122-1.767-.25-2.036-.514a1.202 1.202 0 0 1-.344-.925z"
        fill="maroon"
      />
      <path
        d="M99.18 154.928l.598 1.94c-.051.154-.24.26-.356.292-.419-.054-1.752-.347-2.149-.473.441-.437 1.208-1.28 1.907-1.76z"
        fill="#a00"
      />
      <path
        d="M97.988 155.577c.745-.313 2.155-1.19 2.476-1.343.322-.152.382-.197.477-.306.095-.11.248-.31.176-.422-.229-.04-1.689-.533-1.86-.59.132.217.014 1.103-.302 1.755-.113.234-.239.532-.988.865.02-.005.021.041.021.041z"
        fill="#d40000"
      />
      <path
        d="M98.87 152.713l-.316-1.82c-.028-.142-.182-.175-.3-.115-.119.06-1.063.783-1.434 1.06.346-.177.583-.297.833-.253.25.045.97.214 1.138 1.14-.012-.006.08-.012.08-.012zM95.782 152.214c-.472-.097-1.221-.109-1.315-.111-.094-.003-.184.05-.18.179.004.13.045 1.427.068 1.589l.048-.013c-.064-.273.148-.947.446-1.186.298-.24.523-.403.933-.458zM94.116 153.833c-.393.153-1.401.986-1.525 1.066-.123.08-.097.251.016.286.113.035 1.18.418 1.426.52-.022-.003 0 0 0 0-.279-.149-.481-.552-.526-.83-.024-.395.14-.785.619-1.008zM94.647 156.062s.093 1.871.107 1.961c.014.09.127.124.25.044s1.902-1.318 1.902-1.318c-.405.035-.91-.113-1.283-.223-.305-.09-.846-.294-.976-.464z"
        fill="#a00"
      />
      <path
        d="M95.078 153.441c.173-.392.57-.65 1.036-.804.476-.158 1.016-.153 1.184-.068l-1.607-1.303c-.079-.062-.14.02-.174.122-.035.103-.41 1.896-.44 2.053zM97.112 152.647l2.049-.853c.058-.016.226.032.208.233-.018.201-.541 2.249-.541 2.249.033-.299-.42-.896-.8-1.232-.381-.336-.713-.451-.916-.397zM94.337 154.343l-1.031 1.624c.1.179.222.248.425.23.116-.01 2.404-.305 2.404-.305-.559-.38-1.293-.948-1.798-1.55z"
        fill="#d40000"
      />
      <path
        d="M94.841 154.673l.783-1.436c.182-.208.717-.26 1.126-.202.41.057 1.466.435 1.527 1.007l-.56 1.3c-.176-.382-.87-.635-1.687-.795-.464-.09-.942-.072-1.189.126.01-.002 0 0 0 0z"
        fill="#d40000"
      />
      <path
        d="M98.186 155.122c-.462-.137-1.002-.068-1.654.093-.544.134-1.046.423-1.2.81.014.016 1.464.968 1.464.968.092-.08.333-.138.44-.1z"
        fill="#d40000"
      />
      <path
        d="M102.388 163.95a2.943 2.91 0 0 0-2.933 2.692l-5.196 1.948a2.143 2.143 0 0 0-1.33-.465 2.143 2.143 0 0 0-2.143 2.143 2.143 2.143 0 0 0 2.143 2.143 2.143 2.143 0 0 0 2.085-1.658l5.397-1.74a2.943 2.91 0 0 0 1.977.758 2.943 2.91 0 0 0 2.943-2.91 2.943 2.91 0 0 0-2.943-2.91z"
        fill="#0a8"
        stroke="#000"
        stroke-width=".353"
      />
    </g>
    <circle
      cx="95.804"
      cy="53.936"
      r="46.824"
      fill="none"
      stroke="#000"
      stroke-width=".72"
    />
  </g>
</svg>
