<svg
  xmlns="http://www.w3.org/2000/svg"
  width="356.667"
  height="356.667"
  viewBox="0 0 94.368 94.368"
>
  <defs>
    <clipPath id="a">
      <path
        d="M43.739 147.685a6.615 4.696 0 0 0-3.616 1.916 3.44 2.646 90 0 0-.165 1.188 3.44 2.646 90 0 0 .48 1.968 6.02 2.778 0 0 1 3.026-.38 6.02 2.778 0 0 1 1.45.085 3.44 2.646 90 0 0 .336-1.673 3.44 2.646 90 0 0-1.511-3.104z"
        fill="#e6e6e6"
        stroke-width=".265"
      />
    </clipPath>
    <clipPath id="b">
      <path
        d="M50.323 147.685a6.615 4.696 0 0 1 3.616 1.916 3.44 2.646 90 0 1 .165 1.188 3.44 2.646 90 0 1-.48 1.968 6.02 2.778 0 0 0-3.026-.38 6.02 2.778 0 0 0-1.45.085 3.44 2.646 90 0 1-.336-1.673 3.44 2.646 90 0 1 1.511-3.104z"
        fill="#e6e6e6"
        stroke-width=".265"
      />
    </clipPath>
  </defs>
  <g transform="translate(-51.09 -64.608)">
    <path
      d="M64.537 118.38h4.47q1.372.051 1.677.711.254.483.254 1.423v5.588q0 .813-.711 1.55-2.134 2.209-6.401 2.209-3.785 0-6.579-2.845-2.794-2.87-2.794-6.909 0-4.038 2.845-6.73 2.845-2.718 6.706-2.718 2.997 0 5.664 1.98.686.509.686 1.144 0 .61-.584 1.422-.991 1.346-1.804 1.346-.482 0-1.55-.685-1.066-.712-2.54-.712-1.93 0-3.428 1.372-1.499 1.346-1.499 3.556 0 2.184 1.524 3.734 1.524 1.524 3.455 1.524 1.397 0 2.514-.457v-2.769h-2.006q-.788 0-1.118-.203-.33-.203-.432-.584-.101-.407-.101-1.067 0-.686.101-1.092.127-.407.432-.56.457-.228 1.22-.228zM72.991 113.224q0-.584.026-.864.05-.304.254-.685.355-.686 1.98-.686 1.779 0 2.11.94.126.431.126 1.32v14.123q0 .61-.05.889-.026.28-.23.66-.355.686-1.98.686-1.778 0-2.083-.965-.153-.407-.153-1.296z"
    />
    <path
      d="M88.465 110.963c-.175 0-.333.01-.483.026h-6.13c-.898 0-1.508.16-1.83.482-.321.305-.482.89-.482 1.753v14.122c0 .593.05 1.025.152 1.296.203.643.898.965 2.083.965 1.084 0 1.744-.228 1.981-.686.136-.254.212-.474.229-.66.033-.186.05-.483.05-.89v-4.8h4.98c.592 0 1.023-.042 1.294-.127.644-.22.966-.923.966-2.108 0-1.084-.22-1.753-.66-2.007-.255-.135-.483-.211-.687-.228-.186-.034-.482-.05-.888-.05h-5.004v-2.567h7.772c.406 0 .703-.008.89-.025.184-.03.392-.1.618-.201v12.14c0 .389.009.685.026.888a2.8 2.8 0 0 0 .229.66c.135.238.355.407.66.509.322.101.745.152 1.27.152s.948-.05 1.27-.152c.322-.102.542-.271.66-.508.136-.254.212-.475.229-.66a5.3 5.3 0 0 0 .05-.864v-12.777h4.852c.559 0 .99-.076 1.295-.228.203-.102.348-.28.432-.533.085-.271.127-.627.127-1.068 0-.44-.042-.795-.127-1.066a.92.92 0 0 0-.508-.585c-.254-.135-.652-.203-1.193-.203z"
    />
    <path
      d="M109.601 116.374q.483.152.788.533.33.356.33 1.168 0 .813-.483 1.778-.482.966-1.397.966-.457 0-.889-.204-.406-.203-1.092-.203t-1.295.483q-.585.482-.585 1.168v5.334q0 .584-.05.89-.026.279-.229.66-.381.66-1.981.66-1.22 0-1.753-.432-.406-.355-.457-1.092v-9.652q0-.584.025-.864.051-.304.229-.66.356-.686 1.981-.686 1.524 0 1.905.584.28.407.28.839.127-.178.355-.432.254-.254 1.042-.686.787-.432 1.371-.432.61 0 1.016.076.407.051.89.204zM110.991 122.927q0-3.048 2.134-5.03 2.134-1.98 4.877-1.98t4.851 1.98q2.108 1.956 2.108 5.004 0 2.109-1.092 3.76-1.092 1.625-2.667 2.413-1.55.762-3.226.762t-3.25-.813q-1.576-.838-2.668-2.439-1.067-1.625-1.067-3.657zm5.31 1.829q.812.61 1.65.61.838 0 1.676-.636.839-.635.839-1.88 0-1.244-.788-1.854-.787-.61-1.702-.61-.914 0-1.701.636-.788.635-.788 1.88 0 1.219.813 1.854zM134.045 116.221q2.54 0 4.216 1.956 1.702 1.93 1.702 4.724v4.47q0 .585-.05.89-.026.28-.204.635-.356.686-1.981.686-1.804 0-2.083-.94-.152-.432-.152-1.296v-4.47q0-1.041-.61-1.626-.584-.584-1.6-.584-.99 0-1.626.61-.61.61-.61 1.6v4.496q0 .584-.05.889-.026.28-.229.635-.33.686-1.956.686-1.6 0-1.955-.686-.178-.381-.23-.66-.024-.305-.024-.89v-8.991q0-.559.025-.838.05-.305.254-.66.356-.636 1.956-.636 1.55 0 1.905.584.254.432.254 1.042.101-.178.457-.508t.686-.534q.863-.584 1.905-.584z"
    />
    <g transform="matrix(.5 0 0 .5 61.899 28.966)">
      <path
        d="M88.437 129.223a4.096 4 0 0 0-4.096 4 4.096 4 0 0 0 .39 1.693l-3.504 4.26 3.572 3.44 3.117-5.429a4.096 4 0 0 0 .521.037 4.096 4 0 0 0 3.498-1.93l6.289-.368c3.567 5.178 7.604 12.957 9.866 20.382l-8.078-.522.794 4.366 17.86.992.793-4.1-8.056-.522c-2.19-9.714-4.29-16.48-6.105-21.01l10.722-.628-.066-3.902-24.232.86a4.096 4 0 0 0-3.285-1.62z"
        fill="#0a8"
        stroke="#000"
        stroke-width=".7056348599999999"
      />
      <path
        d="M100.608 153.564a4.096 4 0 0 0-3.967 3.026l-4.01 2.144a4.127 3.89 0 0 0-2.011-.495 4.127 3.89 0 0 0-4.128 3.89 4.127 3.89 0 0 0 3.087 3.758l1.361 7.236a5.424 5.622 0 0 0-4.548 5.419 9.591 4.233 0 0 0 5.75.85 9.591 4.233 0 0 0 5.089-.647 5.424 5.622 0 0 0 .003-.08 5.424 5.622 0 0 0-3.095-5.071l-1.156-8.283a4.127 3.89 0 0 0 1.764-3.182 4.127 3.89 0 0 0-.03-.424l3.04-1.274a4.096 4 0 0 0 2.85 1.134 4.096 4 0 0 0 4.097-4 4.096 4 0 0 0-4.096-4zM119.129 154.752a3.334 3.143 0 0 0-3.334 3.143 3.334 3.143 0 0 0 3.334 3.144 3.334 3.143 0 0 0 .894-.115l3.864 2.217a2.858 2.762 0 0 0-.01.178 2.858 2.762 0 0 0 2.844 2.762l3.811 7.673a3.955 4.1 0 0 0-.616 2.108 6.994 3.087 0 0 0 4.192.62 6.994 3.087 0 0 0 3.711-.472 3.955 4.1 0 0 0 .003-.058 3.955 4.1 0 0 0-3.955-4.1 3.955 4.1 0 0 0-1.912.514l-2.873-7.471a2.858 2.762 0 0 0 .511-1.576 2.858 2.762 0 0 0-2.858-2.762 2.858 2.762 0 0 0-.741.096l-3.545-2.5a3.334 3.143 0 0 0 .013-.258 3.334 3.143 0 0 0-3.333-3.143zM145.55 114.615a5.622 5.424 10.486 0 0-5.397 4.407 5.622 5.424 10.486 0 0-.075.697l-9.8 3.743a3.048 2.857 0 0 0-2.22-.902 3.048 2.857 0 0 0-3.048 2.858 3.048 2.857 0 0 0 .021.3l-6.909 3.245a3.429 3.429 0 0 0-1.97-.624 3.429 3.429 0 0 0-3.43 3.429 3.429 3.429 0 0 0 3.43 3.429 3.429 3.429 0 0 0 3.415-3.16l7.521-3.913a3.048 2.857 0 0 0 .97.151 3.048 2.857 0 0 0 2.923-2.05l9.456-4.326a5.622 5.424 10.486 0 0 4.136 3.451 4.233 9.591 10.486 0 0 1.884-5.497 4.233 9.591 10.486 0 0 .289-5.123 5.622 5.424 10.486 0 0-.078-.019 5.622 5.424 10.486 0 0-1.118-.096z"
        fill="#0a8"
        stroke="#000"
        stroke-width=".7056348599999999"
      />
      <path
        d="M79.507 123.301l23.284-8.731 9.922 21.696-22.226 6.879z"
        fill="#d40000"
      />
      <path d="M102.79 114.57l2.382-8.996 7.54 16.801v13.89z" fill="#ff2a2a" />
      <path
        d="M79.507 123.301l4.763-9.79 20.902-7.937-2.381 8.996z"
        fill="#ff2a2a"
      />
      <path
        d="M89.098 119.73l10.32 20.637 2.579-.794-9.922-20.968z"
        fill="maroon"
      />
      <path
        d="M104.312 108.617l-10.208 3.902 1.08-3.24-2.778 1.19-1.116 3.126-8.608 3.29-.926 1.918 8.857-3.314-1.515 4.24 2.977-1.124 1.395-4.186 10.379-3.884z"
        fill="#d40000"
      />
      <path
        d="M103.849 110.535l8.797 19.513v-2.712l-8.334-18.72z"
        fill="#d40000"
      />
      <path
        d="M89.792 124.764a4.696 6.615 70.595 0 0-2.774 3.009 3.44 2.646 70.595 0 0 .24 1.174 3.44 2.646 70.595 0 0 1.105 1.697 2.778 6.02 70.595 0 1 2.728-1.364 2.778 6.02 70.595 0 1 1.397-.401 3.44 2.646 70.595 0 0-.24-1.69 3.44 2.646 70.595 0 0-2.456-2.425zM96.64 122.094a5.636 7.937 70.595 0 1 4.857.727 4.128 3.175 70.595 0 1 .66 1.278 4.128 3.175 70.595 0 1 .242 2.419 3.334 7.223 70.595 0 0-3.577.776 3.334 7.223 70.595 0 0-1.608.675 4.128 3.175 70.595 0 1-1.046-1.76 4.128 3.175 70.595 0 1 .473-4.115z"
        fill="#e6e6e6"
        stroke="#000"
        stroke-width=".353"
      />
      <circle
        clip-path="url(#a)"
        transform="rotate(-19.405 -.265 1.547)"
        r="1.852"
        cy="149.466"
        cx="43.662"
        fill="#333"
      />
      <circle
        clip-path="url(#b)"
        transform="rotate(-19.405 -82.702 43.641) scale(1.2)"
        cx="52.394"
        cy="149.466"
        r="1.852"
        fill="#333"
      />
      <path
        d="M105.172 105.574L84.27 113.51l-4.763 9.79 10.98 19.844 22.225-6.88v-13.89z"
        fill="none"
        stroke="#000"
        stroke-width=".7056348599999999"
      />
      <path
        d="M91.908 113.934l1.387 1.904 1.263-1.612-.342-.954 1.156.285 1.992-1.063-1.922-.974 3.066-.158-1.22-2.21-1.34-.05.68-1.006.213-1.664s-.803.746-1.423 1.02c.211-.79 1.422-2.403 1.422-2.403s-1.099-.605-1.925-.525c-.206.02-.437.08-.668.159-.083-.373-.132-.53-.513-.705-.256.67-.862 1.343-.862 1.343l.18-2.086s-1.435.08-2.52.87c-.678.94-.755 1.27-.755 1.27s-1.138-.348-2.056-.322c-.493.059-.932.159-.932.159s.467.518.578.833c0 0 .031.496-.178.87-.317-.023-.656-.075-1.117-.929-.29.272-.305.666-.426 1.049-.211.052-.417.119-.609.202-.518.225-.934.608-1.153.948.56-.077 1.47.685 1.758.98-.618.168-1.61-.049-1.917-.265l-.26 1.365c.471.008.815.185 1.377.463-.723.084-1.477.437-1.913.817-.524.516-.787 2.605-.732 2.964 1.151-.648 3.69-1.224 4.916-1.444-.525.666-1.548 1.709-2.264 2.127.2.357 1.53-.217 2.452-.59.482-.194 1.185-.6 1.185-.6s-.349 1.084-.216 1.422c.133.338 2.337 1.665 2.337 1.665z"
        fill="#500"
      />
      <path
        d="M94.558 114.226c-.016 1.013-.482 3.12-.696 3.402-.881.724-2.408 1.362-3.484.757-.718-.815-1.44-1.722-2.108-2.961 1.527.203 4.364-.341 6.288-1.198zM95.372 113.557c1.378.038 3.725-.785 4.411-1.008.686-.223.69-.822.652-.961-.038-.14-1.677-1.602-3.147-2.437.67.79-.274 3.886-1.916 4.406zM98 106.268c.496-.77.278-1.421.144-1.609-.134-.188-.856-.404-1.222-.38-.367.025-2.007.245-2.007.245.894.394 1.084.714 1.41 1.375.32.654.304 2.197.304 2.197s.902-.954 1.37-1.828zM91.647 104.55c-.692-1.177-1.658-1.532-2.629-1.287-.857.215-1.611 1.09-1.496 2.74.37-1.464.982-1.886 1.748-2.117.613-.185 1.481-.196 2.377.664zM84.998 107.248c-1.072.402-1.826.756-1.965 1.391-.139.636.996 1.076 1.616 1.3-.924-1.039-.765-1.754.35-2.691zM82.841 111.606c-.41.357-1.113 3.16-1.113 3.16-.075.413.41.75 1.229.864.819.114 2.826-.28 4.644-1.146-2.214.245-3.535-.5-4.072-1.027-.536-.528-.718-1.229-.688-1.85z"
        fill="maroon"
      />
      <path
        d="M95.252 110.282l1.196 3.88c-.103.308-.48.523-.713.586-.838-.11-3.504-.696-4.298-.948.882-.874 2.416-2.56 3.815-3.518z"
        fill="#a00"
      />
      <path
        d="M92.867 111.582c1.489-.628 4.31-2.382 4.952-2.687.643-.305.764-.394.954-.613.189-.22.495-.62.352-.843-.458-.082-3.377-1.066-3.719-1.179.263.433.027 2.205-.604 3.508-.227.469-.48 1.064-1.977 1.732.038-.01.042.082.042.082z"
        fill="#d40000"
      />
      <path
        d="M94.632 105.853l-.633-3.64c-.056-.284-.364-.35-.601-.23-.237.12-2.126 1.566-2.866 2.122.691-.356 1.165-.596 1.666-.508.5.089 1.94.428 2.275 2.28-.024-.012.16-.024.16-.024zM88.454 104.854c-.943-.193-2.442-.217-2.63-.222-.188-.005-.367.1-.359.359.008.26.089 2.853.135 3.177l.097-.026c-.127-.545.295-1.893.891-2.372.596-.479 1.046-.806 1.866-.916zM85.123 108.092c-.787.307-2.802 1.974-3.05 2.134-.246.16-.195.501.031.57.226.07 2.362.837 2.852 1.04-.043-.006 0 0 0 0-.557-.297-.962-1.103-1.05-1.658-.049-.79.28-1.57 1.236-2.016zM86.186 112.55s.184 3.743.212 3.923c.028.18.254.249.5.088.248-.16 3.805-2.637 3.805-2.637-.81.07-1.822-.225-2.566-.445-.61-.18-1.693-.588-1.951-.929z"
        fill="#a00"
      />
      <path
        d="M87.046 107.31c.347-.786 1.143-1.3 2.073-1.608.952-.316 2.031-.307 2.368-.137 0 0-3.056-2.48-3.214-2.605-.158-.125-.28.038-.349.244-.068.205-.818 3.79-.878 4.105zM91.115 105.722l4.097-1.708c.116-.031.453.064.417.467-.036.402-1.083 4.497-1.083 4.497.066-.597-.837-1.791-1.6-2.463-.762-.672-1.426-.903-1.831-.793zM85.565 109.112l-2.063 3.25c.2.356.445.496.85.46.233-.02 4.81-.61 4.81-.61-1.119-.763-2.587-1.897-3.597-3.1z"
        fill="#d40000"
      />
      <path
        d="M86.574 109.773l1.564-2.871c.364-.417 1.435-.52 2.254-.405.818.115 2.93.87 3.053 2.013l-1.12 2.602c-.351-.764-1.741-1.27-3.373-1.59-.93-.183-1.884-.144-2.378.251.019-.005 0 0 0 0z"
        fill="#d40000"
      />
      <path
        d="M93.263 110.67c-.923-.272-2.005-.135-3.307.187-1.089.268-2.093.847-2.4 1.621.028.03 2.928 1.935 2.928 1.935.184-.162.665-.276.878-.2z"
        fill="#d40000"
      />
      <path
        d="M101.666 128.328a5.887 5.82 0 0 0-5.865 5.383l-10.391 3.897a4.286 4.286 0 0 0-2.662-.932 4.286 4.286 0 0 0-4.286 4.286 4.286 4.286 0 0 0 4.286 4.286 4.286 4.286 0 0 0 4.17-3.316l10.795-3.479a5.887 5.82 0 0 0 3.953 1.517 5.887 5.82 0 0 0 5.887-5.821 5.887 5.82 0 0 0-5.887-5.82z"
        fill="#0a8"
        stroke="#000"
        stroke-width=".7056348599999999"
      />
    </g>
    <circle
      cx="98.274"
      cy="111.792"
      r="46.824"
      fill="none"
      stroke="#000"
      stroke-width=".72"
    />
  </g>
</svg>
